<svg width="617" height="186" viewBox="0 0 617 186" fill="none" xmlns="http://www.w3.org/2000/svg">
<path d="M66.6244 54.8944L77.7259 67.1138C78.6737 68.1544 80.4046 67.4847 80.4046 66.0835V36.8229C80.4046 36.4148 80.566 36.0233 80.8536 35.7338C81.1412 35.4442 81.5317 35.2802 81.9398 35.2775H102.34C111.293 35.2775 119.587 39.9551 124.177 47.5896L128.205 54.2865C128.473 54.7306 128.851 55.0981 129.302 55.3535C129.753 55.6088 130.263 55.7435 130.781 55.7444H130.936C131.734 55.743 132.499 55.4249 133.063 54.8599C133.627 54.2949 133.944 53.5291 133.944 52.7308V22.2957C133.944 21.4973 133.627 20.7316 133.063 20.1666C132.499 19.6015 131.734 19.2834 130.936 19.2821H83.4801C82.6644 19.2821 81.8822 18.9581 81.3054 18.3813C80.7287 17.8045 80.4046 17.0223 80.4046 16.2066V2.30787C80.4046 1.03545 79.3743 0 78.0968 0H67.3353C66.0629 0 65.0274 1.0303 65.0274 2.30787V16.2066C65.0274 17.9066 63.652 19.2872 61.952 19.2872H3.01878C2.2213 19.2872 1.45633 19.6033 0.891457 20.1662C0.326588 20.7292 0.00787794 21.4931 0.0051515 22.2906V29.4717C0.0051515 30.2445 0.303939 30.9863 0.834543 31.5478L66.9644 90.6561C67.493 91.214 67.7876 91.9533 67.7876 92.7219C67.7876 93.4904 67.493 94.2298 66.9644 94.7876L0.829392 153.901C0.297431 154.462 0.000592104 155.205 0 155.977V163.158C0 164.822 1.34969 166.167 3.01363 166.167H61.9468C63.6468 166.167 65.0223 167.547 65.0223 169.247V183.146C65.0223 184.419 66.0526 185.454 67.3301 185.454H78.0916C79.364 185.454 80.3995 184.424 80.3995 183.146V169.247C80.3995 167.547 81.7749 166.172 83.4698 166.172H130.925C131.322 166.173 131.716 166.095 132.083 165.943C132.45 165.791 132.783 165.569 133.063 165.288C133.344 165.007 133.566 164.673 133.717 164.306C133.868 163.939 133.946 163.545 133.944 163.148V132.718C133.944 131.919 133.627 131.152 133.062 130.587C132.496 130.022 131.73 129.705 130.931 129.705H130.786C130.266 129.704 129.755 129.837 129.301 130.093C128.848 130.348 128.469 130.717 128.2 131.162L124.177 137.859C121.908 141.62 118.706 144.73 114.88 146.887C111.055 149.044 106.737 150.176 102.345 150.171H81.9398C81.7375 150.171 81.5373 150.13 81.3507 150.052C81.1641 149.974 80.9947 149.86 80.8521 149.717C80.7096 149.573 80.5967 149.403 80.5199 149.216C80.4431 149.029 80.404 148.828 80.4046 148.626V119.365C80.4059 119.054 80.3125 118.75 80.1367 118.493C79.9609 118.236 79.7112 118.038 79.4206 117.926C79.13 117.815 78.8123 117.794 78.5096 117.867C78.2069 117.94 77.9336 118.103 77.7259 118.335L66.6244 130.555C65.5941 131.688 65.0274 133.161 65.0274 134.696V148.631C65.0274 149.038 64.8657 149.429 64.5778 149.717C64.2899 150.005 63.8994 150.166 63.4923 150.166H25.6596C25.5736 150.169 25.4884 150.149 25.4125 150.108C25.3366 150.067 25.2726 150.007 25.2269 149.934C25.1763 149.848 25.1535 149.749 25.1618 149.649C25.1701 149.549 25.2091 149.455 25.2733 149.378L84.2219 93.984L84.2322 93.9685C84.5187 93.6152 84.6751 93.1742 84.6751 92.7193C84.6751 92.2644 84.5187 91.8234 84.2322 91.4701L84.2219 91.4598L25.2733 36.0708C25.2091 35.9942 25.1701 35.8996 25.1618 35.8C25.1535 35.7004 25.1763 35.6006 25.2269 35.5145C25.2726 35.4415 25.3366 35.3817 25.4125 35.3411C25.4884 35.3004 25.5736 35.2803 25.6596 35.2826H63.4923C64.3371 35.2826 65.0274 35.9678 65.0274 36.8178V50.7526C65.0274 52.2826 65.5941 53.7611 66.6244 54.8944Z" fill="#FF5500"/>
<path d="M539.04 147.476V37.9783H555.309L601.141 118.224V37.9783H616.94V147.476H600.672L554.839 67.2298V147.476H539.04Z" fill="#292929"/>
<path d="M454.475 147.476V37.9783H524.397V52.8387H471.056V84.7494H524.397V99.4534H471.056V132.616H524.397V147.476H454.475Z" fill="#292929"/>
<path d="M361.776 147.476V37.9783H388.055C405.679 37.9783 418.767 42.8796 427.318 52.6823C435.869 62.3806 440.145 75.7289 440.145 92.7271C440.145 109.725 435.869 123.126 427.318 132.928C418.767 142.627 405.679 147.476 388.055 147.476H361.776ZM378.357 132.146H387.43C400.152 132.146 409.329 128.601 414.96 121.509C420.592 114.314 423.407 104.72 423.407 92.7271C423.407 80.7345 420.592 71.1926 414.96 64.1013C409.329 56.9057 400.152 53.308 387.43 53.308H378.357V132.146Z" fill="#292929"/>
<path d="M278.619 147.476V132.772H302.395V52.6822L278.619 52.682L278.619 38.0313H342.753V52.6822H318.977V132.772H342.753V147.476H278.619Z" fill="#292929"/>
<path d="M181.383 147.476V37.9782H198.903L221.585 87.4086L244.266 37.9782H261.786V147.476H245.987V69.5761L228.155 108.682H215.015L197.182 69.7325V147.476H181.383Z" fill="#292929"/>
</svg>
